<?xml version="1.0" encoding="UTF-8" standalone="no"?>
<!-- Created with Inkscape (http://www.inkscape.org/) -->

<svg
   xmlns:dc="http://purl.org/dc/elements/1.1/"
   xmlns:cc="http://creativecommons.org/ns#"
   xmlns:rdf="http://www.w3.org/1999/02/22-rdf-syntax-ns#"
   xmlns:svg="http://www.w3.org/2000/svg"
   xmlns="http://www.w3.org/2000/svg"
   xmlns:sodipodi="http://sodipodi.sourceforge.net/DTD/sodipodi-0.dtd"
   xmlns:inkscape="http://www.inkscape.org/namespaces/inkscape"
   width="29.700001cm"
   height="21cm"
   viewBox="0 0 1052.3622 744.09447"
   id="svg2"
   version="1.1"
   inkscape:version="0.91 r13725"
   sodipodi:docname="Pflanzenschild.svg">
  <defs
     id="defs4" />
  <sodipodi:namedview
     id="base"
     pagecolor="#ffffff"
     bordercolor="#666666"
     borderopacity="1.0"
     inkscape:pageopacity="0.0"
     inkscape:pageshadow="2"
     inkscape:zoom="0.5"
     inkscape:cx="350.4424"
     inkscape:cy="309.55089"
     inkscape:document-units="cm"
     inkscape:current-layer="layer1"
     showgrid="false"
     inkscape:window-width="1280"
     inkscape:window-height="963"
     inkscape:window-x="0"
     inkscape:window-y="0"
     inkscape:window-maximized="1"
     units="cm"
     showguides="false">
    <inkscape:grid
       type="xygrid"
       id="grid4155" />
  </sodipodi:namedview>
  <metadata
     id="metadata7">
    <rdf:RDF>
      <cc:Work
         rdf:about="">
        <dc:format>image/svg+xml</dc:format>
        <dc:type
           rdf:resource="http://purl.org/dc/dcmitype/StillImage" />
        <dc:title></dc:title>
      </cc:Work>
    </rdf:RDF>
  </metadata>
  <g
     inkscape:label="Layer 1"
     inkscape:groupmode="layer"
     id="layer1"
     transform="translate(0,-308.26774)">
    <path
       style="fill:none;fill-rule:evenodd;stroke:#ff0000;stroke-width:1;stroke-linecap:butt;stroke-linejoin:miter;stroke-miterlimit:4;stroke-dasharray:none;stroke-opacity:1"
       d="m 16,419.16222 17.716535,17.71653 62.007875,0 23.71654,17.71654 0,154.91014 20.5748,146.27098 19.5748,-146.27098 0,-154.91014 24.71654,-17.71654 62.00787,0 17.71654,-17.71653 0,-82.88696 -17.71654,-17.71654 -212.598425,0 L 16,336.27526 Z"
       id="path4157"
       inkscape:connector-curvature="0"
       sodipodi:nodetypes="cccccccccccccccc" />
    <path
       style="fill:none;fill-rule:evenodd;stroke:#ff0000;stroke-width:1;stroke-linecap:butt;stroke-linejoin:miter;stroke-miterlimit:4;stroke-dasharray:none;stroke-opacity:1"
       d="m 325.13858,419.16222 17.71653,17.71653 62.00788,0 23.71654,17.71654 0,154.91014 20.5748,146.27098 19.5748,-146.27098 0,-154.91014 24.71654,-17.71654 62.00787,0 17.71654,-17.71653 0,-82.88696 -17.71654,-17.71654 -212.59843,0 -17.71653,17.71654 z"
       id="path4157-9"
       inkscape:connector-curvature="0"
       sodipodi:nodetypes="cccccccccccccccc" />
    <path
       style="fill:none;fill-rule:evenodd;stroke:#ff0000;stroke-width:1;stroke-linecap:butt;stroke-linejoin:miter;stroke-miterlimit:4;stroke-dasharray:none;stroke-opacity:1"
       d="m 644.77819,421.16222 17.71653,17.71653 62.00788,0 23.71654,17.71654 0,154.91014 20.5748,146.27098 19.5748,-146.27098 0,-154.91014 24.71654,-17.71654 62.00787,0 17.71654,-17.71653 0,-82.88696 -17.71654,-17.71654 -212.59843,0 -17.71653,17.71654 z"
       id="path4157-4"
       inkscape:connector-curvature="0"
       sodipodi:nodetypes="cccccccccccccccc" />
    <path
       style="fill:none;fill-rule:evenodd;stroke:#ff0000;stroke-width:1;stroke-linecap:butt;stroke-linejoin:miter;stroke-miterlimit:4;stroke-dasharray:none;stroke-opacity:1"
       d="m 107.88104,908.5142 17.71653,-17.7165 0,-62.0079 17.71654,-23.7165 154.91015,0 146.271,-20.57476 -146.271,-19.5748 -154.91015,0 -17.71654,-24.7166 0,-62.0078 -17.71653,-17.7165 -82.88696,0 -17.71654,17.7165 0,212.59836 17.71654,17.7165 z"
       id="path4157-0"
       inkscape:connector-curvature="0"
       sodipodi:nodetypes="cccccccccccccccc" />
    <path
       style="fill:none;fill-rule:evenodd;stroke:#ff0000;stroke-width:1;stroke-linecap:butt;stroke-linejoin:miter;stroke-miterlimit:4;stroke-dasharray:none;stroke-opacity:1"
       d="m 164.09977,648.86092 17.71654,-17.71653 62.00788,0 23.71654,-17.71654 0,-154.91015 20.5748,-146.27093 19.57479,146.27093 0,154.91015 24.71655,17.71654 62.00787,0 17.71654,17.71653 0,82.88698 -17.71654,17.7165 -212.59843,0 -17.71654,-17.7165 z"
       id="path4157-09"
       inkscape:connector-curvature="0"
       sodipodi:nodetypes="cccccccccccccccc" />
    <path
       sodipodi:nodetypes="cccccccccccccccc"
       inkscape:connector-curvature="0"
       id="path4220"
       d="m 483.13786,658.86097 17.7165,-17.71654 62.0079,0 23.7165,-17.71654 0,-154.91012 20.5748,-146.271 19.5748,146.271 0,154.91012 24.71661,17.71654 62.0079,0 17.7165,17.71654 0,82.88695 -17.7165,17.7165 -212.59851,0 -17.7165,-17.7165 z"
       style="fill:none;fill-rule:evenodd;stroke:#ff0000;stroke-width:1;stroke-linecap:butt;stroke-linejoin:miter;stroke-miterlimit:4;stroke-dasharray:none;stroke-opacity:1" />
    <path
       style="fill:none;fill-rule:evenodd;stroke:#ff0000;stroke-width:1;stroke-linecap:butt;stroke-linejoin:miter;stroke-miterlimit:4;stroke-dasharray:none;stroke-opacity:1"
       d="m 372.15903,801.27022 -17.71658,17.7165 0,62.0079 -17.71654,23.71648 -154.91012,0 -146.27101,20.5748 146.27101,19.5748 154.91012,0 17.71654,24.7166 0,62.0079 17.71658,17.7165 82.8869,0 17.7165,-17.7165 0,-212.59848 -17.7165,-17.7165 z"
       id="path4157-9-0"
       inkscape:connector-curvature="0"
       sodipodi:nodetypes="cccccccccccccccc" />
    <path
       style="fill:none;fill-rule:evenodd;stroke:#ff0000;stroke-width:1;stroke-linecap:butt;stroke-linejoin:miter;stroke-miterlimit:4;stroke-dasharray:none;stroke-opacity:1"
       d="m 797.70641,652.86097 17.7165,-17.7165 62.0079,0 23.7165,-17.7166 0,-154.9101 20.5748,-146.271 19.5748,146.271 0,154.9101 24.7166,17.7166 62.00799,0 17.7165,17.7165 0,82.88704 -17.7165,17.7165 -212.59859,0 -17.7165,-17.7165 z"
       id="path4157-4-1"
       inkscape:connector-curvature="0"
       sodipodi:nodetypes="cccccccccccccccc" />
    <path
       sodipodi:nodetypes="cccccccccccccccc"
       inkscape:connector-curvature="0"
       id="path4222"
       d="m 953.03555,761.16674 -22.50037,11.02189 -20.08738,58.66411 -24.44406,16.69835 -146.55663,-50.18296 -145.04837,-27.91897 132.04196,65.90348 146.55663,50.18297 8.75422,29.12298 -20.08735,58.66401 11.0219,22.5004 78.41729,26.8511 22.50041,-11.0219 68.8709,-201.13396 -11.0219,-22.50037 z"
       style="fill:none;fill-rule:evenodd;stroke:#ff0000;stroke-width:1;stroke-linecap:butt;stroke-linejoin:miter;stroke-miterlimit:4;stroke-dasharray:none;stroke-opacity:1" />
    <path
       style="fill:none;fill-rule:evenodd;stroke:#ff0000;stroke-width:1;stroke-linecap:butt;stroke-linejoin:miter;stroke-miterlimit:4;stroke-dasharray:none;stroke-opacity:1"
       d="m 565.41849,1042.3667 22.85155,-10.274 22.0108,-57.96994 24.98136,-15.88319 144.82225,54.98803 144.04894,32.6865 -129.79714,-70.22156 -144.82226,-54.98804 -7.7892,-29.3958 22.01076,-57.96976 -10.274,-22.85159 -77.4893,-29.42214 -22.8516,10.274 -75.46542,198.7537 10.27401,22.85159 z"
       id="path4157-0-1"
       inkscape:connector-curvature="0"
       sodipodi:nodetypes="cccccccccccccccc" />
  </g>
</svg>
